<?xml version="1.0" encoding="utf-8"?>
<svg version="1.1" xmlns="http://www.w3.org/2000/svg" xmlns:xlink="http://www.w3.org/1999/xlink"
    x="0px" y="0px" viewBox="0 0 256 256" enable-background="new 0 0 256 256" xml:space="preserve">
<metadata> Svg Vector Icons : http://www.onlinewebfonts.com/icon </metadata>
<g><g><path fill="#000000" d="M128,10C62.8,10,10,62.8,10,128c0,65.2,52.8,118,118,118c65.2,0,118-52.8,118-118C246,62.8,193.2,10,128,10z M127,205.5c-43.3,0-78.5-35.1-78.5-78.5c0-20.3,7.7-38.9,20.4-52.8l27.1,28.3c-5.3,6.7-8.5,15.2-8.5,24.5c0,21.8,17.7,39.4,39.4,39.4c8.6,0,16.6-2.8,23.1-7.5l27.1,28.3C163.6,198.6,146.1,205.5,127,205.5z M96.6,127c0-16.8,13.6-30.4,30.4-30.4c16.8,0,30.4,13.6,30.4,30.4c0,16.8-13.6,30.4-30.4,30.4C110.2,157.4,96.6,143.8,96.6,127z M185,179.8l-27.1-28.3c5.3-6.7,8.5-15.2,8.5-24.5c0-21.8-17.7-39.4-39.4-39.4c-8.6,0-16.6,2.8-23.1,7.5L76.8,66.7c13.6-11.3,31.1-18.2,50.2-18.2c43.3,0,78.5,35.1,78.5,78.5C205.4,147.3,197.7,165.9,185,179.8z M127,148.6c11.9,0,21.6-9.7,21.6-21.6c0-11.9-9.7-21.6-21.6-21.6c-11.9,0-21.6,9.7-21.6,21.6C105.4,138.9,115.1,148.6,127,148.6z"/></g></g>
</svg>